{
  "asset": {
    "generator": "glTF-Transform v4.1.3",
    "version": "2.0"
  },
  "accessors": [
    {
      "type": "SCALAR",
      "componentType": 5123,
      "count": 2682,
      "bufferView": 0,
      "byteOffset": 0
    },
    {
      "type": "VEC3",
      "componentType": 5126,
      "count": 1942,
      "bufferView": 1,
      "byteOffset": 0
    },
    {
      "type": "VEC3",
      "componentType": 5126,
      "count": 1942,
      "max": [7.736294746398926, 8.031994819641113, 7.239417552947998],
      "min": [-7.73643684387207, -8.031994819641113, -7.239058017730713],
      "bufferView": 1,
      "byteOffset": 12
    },
    {
      "type": "VEC3",
      "componentType": 5126,
      "count": 1942,
      "bufferView": 1,
      "byteOffset": 24
    },
    {
      "type": "SCALAR",
      "componentType": 5121,
      "count": 1942,
      "bufferView": 1,
      "byteOffset": 36
    }
  ],
  "bufferViews": [
    {
      "buffer": 0,
      "byteOffset": 0,
      "byteLength": 5364,
      "target": 34963
    },
    {
      "buffer": 0,
      "byteOffset": 5364,
      "byteLength": 77680,
      "byteStride": 40,
      "target": 34962
    }
  ],
  "buffers": [
    {
      "uri": "data0.bin",
      "byteLength": 83044
    }
  ],
  "materials": [
    {
      "pbrMetallicRoughness": {
        "roughnessFactor": 0.8,
        "metallicFactor": 0
      }
    }
  ],
  "meshes": [
    {
      "primitives": [
        {
          "attributes": {
            "NORMAL": 1,
            "POSITION": 2,
            "COLOR_0": 3,
            "_FEATURE_ID_0": 4
          },
          "mode": 4,
          "material": 0,
          "indices": 0
        }
      ]
    }
  ],
  "nodes": [
    {
      "mesh": 0
    },
    {
      "translation": [0, 0, 0],
      "children": [0]
    }
  ],
  "scenes": [
    {
      "nodes": [1]
    }
  ],
  "scene": 0
}
